<svg width="288" height="37" viewBox="0 0 288 37" fill="none" xmlns="http://www.w3.org/2000/svg">
<g clip-path="url(#clip0_419_314)">
<path d="M13.7795 15.06C12.7195 15.37 11.9895 15.69 11.1095 15.9C10.8922 15.9014 10.6797 15.8359 10.5008 15.7125C10.3219 15.5891 10.1853 15.4137 10.1095 15.21C9.83948 14.42 9.77948 13.5 9.46948 12.8C8.97948 12.33 7.25949 12.91 7.24949 13.57C7.46949 14.33 8.02948 15.23 8.34948 16.13C8.41949 16.3921 8.41949 16.6679 8.34948 16.93C8.29052 17.2014 8.16957 17.4554 7.99609 17.6723C7.8226 17.8892 7.6013 18.0629 7.34948 18.18C6.38599 18.6142 5.38081 18.9493 4.34948 19.18C2.95948 19.54 1.64948 19.9 0.289483 20.33C0.242503 20.3459 0.200371 20.3735 0.167107 20.4102C0.133844 20.447 0.110562 20.4917 0.0994842 20.54C0.00148284 20.8538 -0.027809 21.185 0.0136039 21.5112C0.0550167 21.8373 0.166165 22.1507 0.339486 22.43C0.579486 22.86 0.999484 23.52 1.43948 23.37C3.10948 22.64 4.65948 21.82 6.35948 21.09C7.16491 20.6322 8.08421 20.4137 9.00948 20.46C9.26843 20.4815 9.51725 20.5703 9.73126 20.7177C9.94527 20.865 10.117 21.0658 10.2295 21.3C10.5174 22.1324 10.7578 22.9804 10.9495 23.84C11.2495 24.47 13.2995 23.75 13.2195 23.2C13.2195 23.2 12.4095 21.52 12.2195 20.97C12.167 20.711 12.2113 20.4418 12.344 20.2133C12.4767 19.9848 12.6886 19.8128 12.9395 19.73C16.4382 18.7975 20.0763 18.5028 23.6795 18.86C24.3996 18.8942 25.1173 18.9677 25.8295 19.08L28.0395 19.5C29.0395 19.68 29.7295 19.99 30.7295 20.2C30.9595 20.27 31.0095 20.06 31.0295 19.97V19.86C31.6095 16.04 38.4095 18.57 36.2495 21.94V22.05C36.2283 22.0752 36.2167 22.1071 36.2167 22.14C36.2167 22.1729 36.2283 22.2048 36.2495 22.23C36.9295 22.69 37.5895 23.09 38.3795 23.57H38.5995C38.9495 23.34 39.0695 22.96 39.3595 22.69C39.6748 22.3947 40.0279 22.1425 40.4095 21.94C42.0696 21.1102 43.7757 20.3757 45.5195 19.74V19.62C40.9169 16.55 35.6865 14.5473 30.2105 13.7583C24.7346 12.9694 19.1515 13.4141 13.8695 15.06H13.7795Z" fill="white"/>
<path d="M13.8796 2.43001C12.8196 2.74001 12.0896 3.06001 11.2096 3.27001C10.9903 3.28074 10.7735 3.21899 10.5928 3.09428C10.4121 2.96958 10.2774 2.78886 10.2096 2.58001C9.9396 1.79001 9.86959 0.87001 9.55959 0.17001C9.06959 -0.30999 7.3396 0.290011 7.3396 0.940011C7.5596 1.70001 8.1196 2.60001 8.4396 3.50001C8.51432 3.75804 8.51432 4.03198 8.4396 4.29001C8.38436 4.56289 8.26482 4.81865 8.0909 5.03605C7.91698 5.25346 7.69369 5.42622 7.4396 5.54001C6.47727 5.97722 5.47178 6.31238 4.4396 6.54001C3.0496 6.91001 1.72959 7.27001 0.379594 7.69001C0.331225 7.70526 0.28751 7.73251 0.252534 7.76924C0.217558 7.80596 0.192462 7.85095 0.179593 7.90001C0.0823958 8.21442 0.0544151 8.54615 0.0975697 8.87239C0.140724 9.19864 0.253992 9.51168 0.429593 9.79001C0.659593 10.22 1.07959 10.88 1.51959 10.73C3.19959 10 4.74959 9.19001 6.44959 8.47001C7.22084 7.99373 8.11335 7.75063 9.01959 7.77001C9.28001 7.79079 9.53048 7.87922 9.74622 8.02655C9.96196 8.17389 10.1355 8.37501 10.2496 8.61001C10.5696 9.45001 10.9496 11.13 10.9696 11.15C11.2696 11.78 13.3096 11.06 13.2396 10.5C13.2396 10.5 12.4196 8.83001 12.2396 8.28001C12.195 8.0175 12.2489 7.74776 12.391 7.52259C12.5331 7.29741 12.7534 7.13267 13.0096 7.06001C16.5117 6.12754 20.1531 5.83285 23.7596 6.19001C24.477 6.22265 25.1917 6.29946 25.8996 6.42001L28.1096 6.82001C29.1096 7.01001 29.7996 7.31001 30.8096 7.53001C31.0296 7.60001 31.0796 7.39001 31.0996 7.30001V7.19001C31.6796 3.37001 38.4796 5.90001 36.3196 9.26001V9.38001C36.2984 9.40522 36.2868 9.43709 36.2868 9.47001C36.2868 9.50293 36.2984 9.53479 36.3196 9.56001C36.9896 10.02 37.6596 10.41 38.4396 10.9H38.6696C39.0196 10.67 39.1396 10.3 39.4296 10.03C39.7284 9.73696 40.0646 9.48477 40.4296 9.28001C42.0896 8.45284 43.7958 7.72164 45.5396 7.09001V6.95001C40.9501 3.90157 35.7401 1.91184 30.2869 1.12491C24.8337 0.337974 19.2737 0.773519 14.0096 2.40001L13.8796 2.43001Z" fill="white"/>
<path d="M13.7196 27.75C12.6596 28.06 11.9396 28.38 11.0496 28.59C10.8303 28.6007 10.6135 28.539 10.4328 28.4143C10.252 28.2896 10.1174 28.1088 10.0496 27.9C9.76958 27.11 9.70958 26.19 9.40958 25.49C8.90958 25.01 7.18958 25.6 7.17958 26.26C7.40958 27.01 7.96958 27.92 8.27958 28.82C8.35959 29.0773 8.35959 29.3527 8.27958 29.61C8.22276 29.8835 8.10273 30.1399 7.92909 30.3587C7.75545 30.5774 7.53301 30.7526 7.27958 30.87C6.3298 31.2952 5.34211 31.63 4.32958 31.87C2.93958 32.22 1.62958 32.58 0.269575 33.01C0.222058 33.0268 0.179177 33.0545 0.144423 33.091C0.109668 33.1275 0.0840248 33.1717 0.0695784 33.22C-0.0250042 33.5348 -0.0516306 33.866 -0.00853129 34.1919C0.034568 34.5177 0.146409 34.8306 0.319578 35.11C0.559578 35.55 0.969579 36.2 1.40958 36.05C3.08958 35.33 4.63958 34.5 6.33958 33.78C7.11766 33.3111 8.01119 33.0686 8.91958 33.08C9.17843 33.1063 9.4263 33.1981 9.63978 33.3468C9.85325 33.4956 10.0253 33.6963 10.1396 33.93C10.424 34.7635 10.6643 35.6113 10.8596 36.47C11.1496 37.1 13.2096 36.38 13.1296 35.82C13.1296 35.82 12.3196 34.16 12.1296 33.6C12.0701 33.3405 12.1113 33.0682 12.245 32.838C12.3786 32.6078 12.5947 32.4369 12.8496 32.36C16.3485 31.4288 19.9857 31.1308 23.5896 31.48C24.3096 31.54 24.9996 31.58 25.7396 31.71L27.9396 32.13C28.9396 32.31 29.6296 32.62 30.6396 32.83C30.8696 32.89 30.9096 32.69 30.9296 32.6V32.49C31.5096 28.67 38.3096 31.19 36.1496 34.57L36.0996 34.68C36.0784 34.7052 36.0668 34.7371 36.0668 34.77C36.0668 34.8029 36.0784 34.8348 36.0996 34.86C36.7696 35.33 37.4396 35.71 38.2296 36.2H38.4496C38.7996 35.97 38.9196 35.59 39.2096 35.32C39.507 35.0254 39.8435 34.773 40.2096 34.57C41.8689 33.7385 43.5751 33.0039 45.3196 32.37V32.24C40.7307 29.1982 35.523 27.2147 30.0734 26.433C24.6237 25.6513 19.0684 26.0909 13.8096 27.72L13.7196 27.75Z" fill="white"/>
<path d="M58.4595 9.63H72.2195V12H61.0795V17.38H71.3895V19.76H61.0795V25.81H72.3795V28.18H58.4595V9.63Z" fill="white"/>
<path d="M80.5096 20.27C83.8796 21.04 84.8196 22.17 84.8196 24.08C84.8196 26.55 82.8196 28.59 79.2596 28.59C74.9096 28.59 73.5496 26.3 73.5496 23.77H75.9096C75.9096 25.06 76.4296 26.48 79.5696 26.48C81.3496 26.48 82.4196 25.66 82.4196 24.48C82.4196 23.61 81.8696 23.06 80.2496 22.68L77.5796 22.06C75.5796 21.62 73.9696 20.82 73.9696 18.45C73.9696 16.08 75.7196 14.36 79.1996 14.36C82.9896 14.36 84.4596 16.65 84.4596 18.68H82.0996C81.9796 17.68 81.4496 16.47 79.0996 16.47C77.3696 16.47 76.4296 17.34 76.4296 18.3C76.4296 19.26 77.3696 19.61 78.7296 19.9L80.5096 20.27Z" fill="white"/>
<path d="M92.5894 20.27C95.9594 21.04 96.9094 22.17 96.9094 24.08C96.9094 26.55 94.9094 28.59 91.3294 28.59C86.9894 28.59 85.6294 26.3 85.6294 23.77H88.0094C88.0594 25.06 88.5294 26.48 91.6694 26.48C93.4494 26.48 94.5194 25.66 94.5194 24.48C94.5194 23.61 93.9694 23.06 92.3494 22.68L89.6594 22.06C87.6594 21.62 86.0494 20.82 86.0494 18.45C86.0494 16.08 87.8094 14.36 91.2794 14.36C95.0794 14.36 96.5394 16.65 96.5394 18.68H94.1894C94.0594 17.68 93.5294 16.47 91.1294 16.47C89.3994 16.47 88.4594 17.34 88.4594 18.3C88.4594 19.26 89.3994 19.61 90.7594 19.9L92.5894 20.27Z" fill="white"/>
<path d="M110.379 23.72C110.195 25.1258 109.485 26.4096 108.392 27.3131C107.299 28.2166 105.905 28.6728 104.489 28.59C100.379 28.59 98.1594 25.89 98.1594 21.45C98.1594 17.01 100.379 14.32 104.489 14.32C108.229 14.32 110.559 16.74 110.559 20.76C110.559 21.22 110.559 21.69 110.509 22.1H100.669C100.749 25.24 102.449 26.48 104.489 26.48C105.305 26.4973 106.101 26.2318 106.742 25.7287C107.384 25.2256 107.832 24.5158 108.009 23.72H110.379ZM108.099 20.14C108.111 19.6579 108.027 19.1783 107.851 18.7294C107.675 18.2804 107.411 17.8711 107.075 17.5255C106.739 17.1799 106.337 16.9049 105.893 16.7168C105.449 16.5287 104.972 16.4312 104.489 16.43C102.319 16.43 101.009 17.48 100.669 20.14H108.099Z" fill="white"/>
<path d="M114.769 21.28L110.219 14.73H113.199L116.259 19.42L119.319 14.73H122.299L117.749 21.28L122.639 28.18H119.659L116.259 23.03L112.859 28.18H109.879L114.769 21.28Z" fill="white"/>
<path d="M144.19 21.22C143.82 24.16 142.04 28.59 136.19 28.59C130.98 28.59 127.58 24.91 127.58 18.9C127.58 12.89 130.98 9.21002 136.19 9.21002C142.55 9.21002 144.06 13.56 144.19 15.5H141.57C141.338 14.3343 140.684 13.2951 139.734 12.581C138.784 11.867 137.604 11.5284 136.42 11.63C132.6 11.63 130.33 14.42 130.33 18.9C130.33 23.38 132.6 26.17 136.42 26.17C140.24 26.17 141.21 23.17 141.57 21.17L144.19 21.22Z" fill="white"/>
<path d="M151.509 26.48C153.759 26.48 155.329 25.04 155.329 21.48C155.329 17.92 153.759 16.48 151.509 16.48C149.259 16.48 147.689 17.92 147.689 21.48C147.689 25.04 149.259 26.48 151.509 26.48ZM145.179 21.48C145.179 17.05 147.399 14.34 151.509 14.34C155.619 14.34 157.839 17.05 157.839 21.48C157.839 25.91 155.609 28.62 151.509 28.62C147.409 28.62 145.179 25.92 145.179 21.48Z" fill="white"/>
<path d="M168.38 26.5C167.775 27.1628 167.038 27.6912 166.216 28.0513C165.395 28.4113 164.507 28.5948 163.61 28.59C161.1 28.59 159.53 27.2 159.53 23.7V14.7H161.94V23.7C161.891 24.0502 161.923 24.4068 162.032 24.7431C162.141 25.0794 162.324 25.3868 162.568 25.6425C162.812 25.8982 163.111 26.0955 163.442 26.2197C163.773 26.3439 164.127 26.3919 164.48 26.36C164.966 26.399 165.455 26.3361 165.916 26.1753C166.377 26.0145 166.799 25.7594 167.156 25.4263C167.512 25.0932 167.796 24.6894 167.987 24.2406C168.179 23.7918 168.275 23.308 168.27 22.82V14.73H170.67V28.18H168.38V26.5Z" fill="white"/>
<path d="M173.11 14.73H175.41V16.4C176.012 15.7383 176.748 15.2111 177.568 14.8527C178.388 14.4943 179.275 14.3128 180.17 14.32C182.52 14.32 184.25 15.71 184.25 19.21V28.21H181.84V19.21C181.875 18.8631 181.834 18.5128 181.721 18.183C181.608 17.8532 181.426 17.5517 181.185 17.2991C180.945 17.0465 180.653 16.8488 180.329 16.7195C180.006 16.5902 179.658 16.5324 179.31 16.55C178.826 16.5158 178.341 16.581 177.884 16.7416C177.426 16.9021 177.007 17.1545 176.651 17.4834C176.295 17.8122 176.01 18.2105 175.814 18.6536C175.617 19.0967 175.514 19.5753 175.51 20.06V28.18H173.11V14.73Z" fill="white"/>
<path d="M191.57 28.36C191.18 28.36 190.57 28.36 189.98 28.36C187.54 28.36 186.86 27.56 186.86 24.93V16.63H185.06V14.73H186.86V11.12H189.27V14.73H191.52V16.68H189.27V24.68C189.27 26 189.69 26.31 190.58 26.31C190.86 26.31 191.34 26.31 191.58 26.31L191.57 28.36Z" fill="white"/>
<path d="M199.6 29.65C198.26 33.31 197.11 33.65 195.6 33.65C195.028 33.6345 194.459 33.5676 193.9 33.45V31.27C194.367 31.409 194.852 31.4797 195.34 31.48C196.65 31.48 197.09 29.98 197.64 28.48L192.61 14.73H195.23L198.89 25.37H198.94L202.52 14.73H205.09L199.6 29.65Z" fill="white"/>
<path d="M226.94 21.22C226.58 24.16 224.8 28.59 218.94 28.59C213.73 28.59 210.32 24.91 210.32 18.9C210.32 12.89 213.73 9.21002 218.94 9.21002C225.3 9.21002 226.82 13.56 226.94 15.5H224.32C224.088 14.3343 223.434 13.2951 222.484 12.581C221.534 11.867 220.354 11.5284 219.17 11.63C215.35 11.63 213.07 14.42 213.07 18.9C213.047 20.1095 213.247 21.313 213.66 22.45C214.055 23.5809 214.804 24.554 215.797 25.2243C216.79 25.8946 217.973 26.2263 219.17 26.17C222.86 26.17 223.96 23.17 224.32 21.17L226.94 21.22Z" fill="white"/>
<path d="M234.289 26.48C236.539 26.48 238.109 25.04 238.109 21.48C238.109 17.92 236.539 16.48 234.289 16.48C232.039 16.48 230.469 17.92 230.469 21.48C230.469 25.04 232.039 26.48 234.289 26.48ZM227.959 21.48C227.959 17.05 230.179 14.34 234.289 14.34C238.399 14.34 240.619 17.05 240.619 21.48C240.619 25.91 238.399 28.62 234.289 28.62C230.179 28.62 228.009 25.89 228.009 21.45" fill="white"/>
<path d="M250.92 26.5C250.318 27.164 249.583 27.6934 248.763 28.0536C247.943 28.4137 247.055 28.5965 246.16 28.59C243.65 28.59 242.08 27.2 242.08 23.7V14.7H244.49V23.7C244.439 24.0499 244.467 24.4068 244.574 24.7441C244.68 25.0813 244.861 25.3903 245.103 25.6479C245.345 25.9055 245.643 26.1051 245.973 26.2319C246.303 26.3586 246.657 26.4093 247.01 26.38C247.496 26.419 247.985 26.3561 248.446 26.1953C248.907 26.0345 249.329 25.7794 249.686 25.4463C250.042 25.1132 250.326 24.7094 250.517 24.2606C250.709 23.8118 250.805 23.328 250.8 22.84V14.73H253.21V28.18H250.9L250.92 26.5Z" fill="white"/>
<path d="M255.29 14.73H257.59V16.4C258.192 15.7383 258.928 15.2111 259.748 14.8527C260.568 14.4943 261.455 14.3128 262.35 14.32C264.7 14.32 266.43 15.71 266.43 19.21V28.21H264.01V19.21C264.045 18.8622 264.004 18.511 263.891 18.1805C263.777 17.8499 263.593 17.5479 263.352 17.2951C263.111 17.0423 262.817 16.8448 262.492 16.7162C262.167 16.5876 261.819 16.5309 261.47 16.55C260.988 16.5186 260.506 16.586 260.051 16.7479C259.597 16.9098 259.18 17.1629 258.827 17.4916C258.474 17.8203 258.192 18.2176 257.998 18.6593C257.804 19.101 257.703 19.5776 257.7 20.06V28.18H255.29V14.73Z" fill="white"/>
<path d="M279.559 23.33C279.549 24.0425 279.397 24.7458 279.111 25.3984C278.824 26.0511 278.411 26.6398 277.893 27.13C277.376 27.6202 276.766 28.0019 276.099 28.2527C275.432 28.5034 274.722 28.6181 274.009 28.59C269.909 28.59 267.689 25.89 267.689 21.45C267.689 17.01 269.909 14.32 274.009 14.32C278.109 14.32 279.479 17.2 279.479 19.32H277.129C277.125 18.9221 277.039 18.5293 276.878 18.1655C276.716 17.8018 276.483 17.4747 276.191 17.2043C275.899 16.9339 275.555 16.7257 275.18 16.5926C274.805 16.4595 274.407 16.4042 274.009 16.43C271.759 16.43 270.199 17.87 270.199 21.43C270.199 24.99 271.759 26.43 274.009 26.43C276.259 26.43 277.009 24.29 277.209 23.28L279.559 23.33Z" fill="white"/>
<path d="M280.78 9.62H283.19V12.25H280.78V9.62ZM280.78 14.73H283.19V28.18H280.78V14.73Z" fill="white"/>
<path d="M287.72 9.63H285.31V28.18H287.72V9.63Z" fill="white"/>
</g>
<defs>
<clipPath id="clip0_419_314">
<rect width="287.72" height="36.74" fill="white" transform="translate(-0.000488281)"/>
</clipPath>
</defs>
</svg>
