<svg width="65" height="65" viewBox="0 0 65 65" fill="none" xmlns="http://www.w3.org/2000/svg">
<rect width="64" height="64" transform="translate(0.993347 0.901123)" fill="white"/>
<rect x="15.3683" y="13.6511" width="35.875" height="22.125" rx="2" stroke="#414745" stroke-width="2"/>
<path fill-rule="evenodd" clip-rule="evenodd" d="M10.4013 39.9403L3.84034 47.4373C3.71948 47.559 3.59003 47.8062 3.59003 48.1104V50.1332C3.59003 51.8134 4.95156 53.1749 6.63175 53.1749H11.7013C12.2607 53.1749 12.7152 52.7205 12.7152 52.161C12.7152 51.6016 12.2607 51.1471 11.7013 51.1471H6.63175C6.07229 51.1471 5.61784 50.6926 5.61784 50.1332V49.1193H60.3689V50.1332C60.3689 50.6926 59.9144 51.1471 59.3549 51.1471H17.7847C17.2253 51.1471 16.7708 51.6016 16.7708 52.161C16.7708 52.7205 17.2253 53.1749 17.7847 53.1749H59.3549C61.0351 53.1749 62.3967 51.8134 62.3967 50.1332V48.1104C62.3967 47.8143 62.355 47.6469 62.1464 47.4373L55.5854 39.9403C56.0398 39.4089 56.3132 38.7195 56.3132 37.9663V11.665C56.3132 9.98483 54.9517 8.62329 53.2715 8.62329H21.8404C21.2809 8.62329 20.8265 9.07774 20.8265 9.6372C20.8265 10.1967 21.2809 10.6511 21.8404 10.6511H53.2715C53.831 10.6511 54.2854 11.1056 54.2854 11.665V37.9663C54.2854 38.5258 53.831 38.9803 53.2715 38.9803H12.7152C12.1557 38.9803 11.7013 38.5258 11.7013 37.9663V36.9524H52.2576C52.817 36.9524 53.2715 36.498 53.2715 35.9385C53.2715 35.3791 52.817 34.9246 52.2576 34.9246H11.7013V11.665C11.7013 11.1056 12.1557 10.6511 12.7152 10.6511H18.7986C19.3581 10.6511 19.8125 10.1967 19.8125 9.6372C19.8125 9.07774 19.3581 8.62329 18.7986 8.62329H12.7152C11.035 8.62329 9.67347 9.98483 9.67347 11.665V37.9663C9.67347 38.7195 9.94732 39.4093 10.4013 39.9403ZM53.7873 40.9641C53.6189 40.9927 53.4464 41.0076 53.2713 41.0076H12.715C12.5394 41.0076 12.3673 40.9922 12.199 40.9641L6.83835 47.091H25.3135L27.3861 43.5383C27.5677 43.2269 27.9013 43.0354 28.2611 43.0354H37.7249C38.0847 43.0354 38.4183 43.2269 38.5998 43.5383L39.1941 44.5563C39.4761 45.0397 39.3127 45.6616 38.8293 45.9432C38.3459 46.2252 37.7253 46.0618 37.4433 45.5784L37.1423 45.0633H28.8446L27.6614 47.0911H59.1482L53.7873 40.9641Z" fill="#414745"/>
<path fill-rule="evenodd" clip-rule="evenodd" d="M15.7571 52.165C15.7571 52.7249 15.3031 53.1789 14.7432 53.1789C14.1832 53.1789 13.7292 52.7249 13.7292 52.165C13.7292 51.6051 14.1832 51.1511 14.7432 51.1511C15.3031 51.1511 15.7571 51.6051 15.7571 52.165Z" fill="#414745"/>
</svg>
