<svg width="66" height="65" viewBox="0 0 66 65" fill="none" xmlns="http://www.w3.org/2000/svg">
<rect width="64.9275" height="64" transform="translate(0.775818 0.901123)" fill="white"/>
<path d="M56.5258 47.7761C56.5258 52.1944 52.9428 55.7761 48.5245 55.7761C39.2188 55.7761 32.0051 55.7761 22.0266 55.7761C19.8174 55.7761 18.0258 53.9853 18.0258 51.7761L18.0258 40.0261L56.5258 40.0261L56.5258 47.7761Z" stroke="#414745" stroke-width="3"/>
<path d="M10.0258 14.4011C10.0258 12.192 11.8167 10.4011 14.0258 10.4011H42.5258C44.735 10.4011 46.5258 12.192 46.5258 14.4011V55.7761H14.0258C11.8167 55.7761 10.0258 53.9853 10.0258 51.7761V14.4011Z" fill="white" stroke="#414745" stroke-width="3"/>
<path d="M17.2962 22.424C17.2962 21.8286 17.5362 21.2576 17.9633 20.8365C18.3904 20.4155 18.9698 20.179 19.5738 20.179H36.2764C36.8805 20.179 37.4598 20.4155 37.887 20.8365C38.3141 21.2576 38.5541 21.8286 38.5541 22.424C38.5541 23.0195 38.3141 23.5905 37.887 24.0116C37.4598 24.4326 36.8805 24.6691 36.2764 24.6691H19.5738C18.9698 24.6691 18.3904 24.4326 17.9633 24.0116C17.5362 23.5905 17.2962 23.0195 17.2962 22.424ZM17.2962 32.9011C17.2962 32.3057 17.5362 31.7346 17.9633 31.3136C18.3904 30.8926 18.9698 30.656 19.5738 30.656H36.2764C36.8805 30.656 37.4598 30.8926 37.887 31.3136C38.3141 31.7346 38.5541 32.3057 38.5541 32.9011C38.5541 33.4966 38.3141 34.0676 37.887 34.4886C37.4598 34.9097 36.8805 35.1462 36.2764 35.1462H19.5738C18.9698 35.1462 18.3904 34.9097 17.9633 34.4886C17.5362 34.0676 17.2962 33.4966 17.2962 32.9011ZM17.2962 43.3782C17.2962 42.7828 17.5362 42.2117 17.9633 41.7907C18.3904 41.3697 18.9698 41.1331 19.5738 41.1331H27.1659C27.77 41.1331 28.3493 41.3697 28.7764 41.7907C29.2036 42.2117 29.4435 42.7828 29.4435 43.3782C29.4435 43.9736 29.2036 44.5447 28.7764 44.9657C28.3493 45.3868 27.77 45.6233 27.1659 45.6233H19.5738C18.9698 45.6233 18.3904 45.3868 17.9633 44.9657C17.5362 44.5447 17.2962 43.9736 17.2962 43.3782Z" fill="#414745"/>
</svg>
