<svg width="64" height="65" viewBox="0 0 64 65" fill="none" xmlns="http://www.w3.org/2000/svg">
<rect width="63.0857" height="64" transform="translate(0.0790405 0.901123)" fill="white"/>
<path fill-rule="evenodd" clip-rule="evenodd" d="M9.74016 22.6487C10.2453 22.1358 10.8549 21.7233 11.5341 21.4465C11.1301 20.6637 10.8997 19.8019 10.8903 18.8948C10.8738 17.3394 11.5172 15.9408 12.5302 14.9621C14.4459 13.1116 17.332 12.9572 19.6052 14.604C19.854 14.0492 20.199 13.531 20.6369 13.0704C21.6044 12.0535 22.9811 11.4034 24.5127 11.4182C26.0755 11.4335 27.5068 12.132 28.6245 13.2664L37.9686 22.7459C38.2557 21.0575 38.8868 19.294 40.1241 17.6612C41.8797 15.3441 44.72 14.6783 47.0563 15.6972C49.4884 16.7579 50.9197 19.4549 50.1428 22.4313C49.4896 24.9334 49.6959 28.5423 50.4112 31.1951C51.7462 34.7099 52.4426 38.235 51.8797 41.7909C51.3005 45.4488 49.4535 48.7359 46.4065 51.8275C42.7141 55.5734 38.1347 57.539 33.4381 57.5177C28.746 57.4963 24.1929 55.4941 20.5381 51.7863L10.3977 41.4989C9.27876 40.3641 8.5958 38.9182 8.56761 37.3469C8.5398 35.8076 9.15093 34.4067 10.1357 33.4078C10.5566 32.9811 11.0498 32.6234 11.5947 32.3558L10.0022 30.7402C8.88369 29.6054 8.20034 28.1595 8.17215 26.5886C8.14471 25.0493 8.75548 23.6484 9.74022 22.6495L9.74016 22.6487ZM14.9961 20.7388C12.5598 18.2531 15.7418 15.1787 18.178 17.6644L29.7618 29.416C30.3037 29.9658 31.1829 29.9658 31.7252 29.416C32.2672 28.8658 32.2672 27.9739 31.7252 27.4241L23.2523 18.8284C22.7671 18.3361 22.4998 17.8134 22.4025 17.3116C22.0097 15.2869 24.3799 13.5985 26.338 15.585L38.4009 27.8227C38.6028 28.0275 38.8606 28.2681 39.1466 28.519C39.3781 28.7222 39.6285 28.9323 39.8825 29.1363C40.5715 29.6888 41.3724 29.0799 41.2416 28.1991C41.2085 27.976 41.1766 27.7472 41.1477 27.5127C41.0928 27.0712 41.0473 26.611 41.021 26.1393C41.015 26.0299 41.0097 25.9197 41.006 25.8091C40.9338 23.7768 41.2488 21.558 42.6872 19.6599C44.424 17.3676 47.7522 18.7757 47.0174 21.5916C46.1676 24.8474 46.4788 29.1577 47.3399 32.2314C49.8514 38.7531 49.4954 44.0542 44.1199 49.5079C37.8511 55.8679 29.0406 55.7731 22.8239 49.4667L12.6835 39.1793C10.7252 37.193 12.3538 34.752 14.3353 35.136C14.8266 35.2313 15.3393 35.5001 15.8248 35.9923L20.8108 41.0506C21.4821 41.732 22.6145 41.5437 23.0363 40.6804C23.3009 40.139 23.1956 39.4866 22.7743 39.0591L12.2884 28.4213C10.3043 26.4084 12.0031 23.9285 14.02 24.3948C14.4868 24.5027 14.9705 24.7684 15.4298 25.2344L24.6562 34.5946C25.1993 35.1456 26.0796 35.1456 26.6224 34.5946C27.1643 34.0448 27.1655 33.154 26.6254 32.6027L26.6224 32.6L25.7726 31.7326L17.4215 23.2136L15.7974 21.5568L14.9961 20.7388Z" fill="#414745"/>
<path d="M54.8215 17.8674C54.2334 17.8674 53.7559 17.3837 53.7559 16.7864C53.7559 15.5925 53.2886 14.4473 52.4563 13.6023C51.6241 12.758 50.4947 12.2839 49.3178 12.2839C48.7271 12.2839 48.2477 11.7976 48.2477 11.1984C48.2477 10.5992 48.7271 10.1135 49.3178 10.1135C51.0638 10.1161 52.7377 10.8205 53.9728 12.0735C55.2072 13.3259 55.9022 15.0241 55.9042 16.7954C55.9023 17.0841 55.7865 17.3593 55.5829 17.5601C55.3799 17.7616 55.1054 17.8719 54.8215 17.8674L54.8215 17.8674Z" fill="#414745"/>
<path d="M60.3079 17.5325C59.7191 17.5325 59.2423 17.0487 59.2423 16.4521C59.2404 13.8686 58.2273 11.3916 56.4269 9.56426C54.6258 7.73776 52.1842 6.71062 49.6374 6.70799C49.0468 6.70799 48.5681 6.22234 48.5681 5.62247C48.5681 5.02327 49.0468 4.5376 49.6374 4.5376C52.7488 4.54209 55.7306 5.79826 57.9307 8.02963C60.1301 10.2616 61.3683 13.2872 61.3728 16.4431C61.3753 16.7311 61.264 17.0083 61.0642 17.2129C60.8644 17.4176 60.5918 17.5324 60.3079 17.5324L60.3079 17.5325Z" fill="#414745"/>
<path d="M15.7374 57.518C13.9927 57.5128 12.3212 56.8071 11.088 55.5548C9.85551 54.3025 9.16185 52.6056 9.15991 50.8356C9.15991 50.2364 9.63863 49.7507 10.2293 49.7507C10.8199 49.7507 11.2987 50.2364 11.2987 50.8356C11.2987 52.0302 11.7666 53.1753 12.5989 54.0197C13.4311 54.864 14.5605 55.3387 15.7375 55.3387C16.3281 55.3387 16.8068 55.8244 16.8068 56.4236C16.8068 57.0228 16.3281 57.5091 15.7375 57.5091L15.7374 57.518Z" fill="#414745"/>
<path d="M15.3732 63.0742C12.2644 63.0594 9.28707 61.7955 7.09392 59.5591C4.90142 57.3227 3.67136 54.2958 3.67395 51.1413C3.67395 50.5421 4.15267 50.0564 4.74333 50.0564C5.33399 50.0564 5.81334 50.542 5.81334 51.1413C5.80828 53.7223 6.81189 56.1993 8.60339 58.0302C10.3955 59.8618 12.8296 60.898 15.3731 60.9128C15.9643 60.9128 16.4431 61.3984 16.4431 61.9977C16.4431 62.5969 15.9644 63.0832 15.3731 63.0832L15.3732 63.0742Z" fill="#414745"/>
</svg>
