<svg width="65" height="65" viewBox="0 0 65 65" fill="none" xmlns="http://www.w3.org/2000/svg">
<rect width="64" height="64" transform="translate(0.0790405 0.901123)" fill="white"/>
<path d="M42.7671 55.3787C43.2312 55.4029 43.7126 55.4133 44.2009 55.4133C54.3556 55.4133 59.7862 50.5265 59.7862 43.2914V41.5597C59.7862 39.7226 59.0564 37.9608 57.7574 36.6617C56.4584 35.3627 54.6965 34.6329 52.8594 34.6329H43.2831M35.5424 34.6329C37.3795 34.6329 39.1414 35.3627 40.4404 36.6617C41.7394 37.9608 42.4692 39.7226 42.4692 41.5597V46.7548C42.4692 53.8686 35.2377 58.8767 23.4206 58.8767C11.6035 58.8767 4.37189 53.8686 4.37189 46.7548V41.5597C4.37189 39.7226 5.10167 37.9608 6.40069 36.6617C7.69972 35.3627 9.46157 34.6329 11.2987 34.6329H35.5424ZM23.4206 6.92578C25.0124 6.92578 26.5887 7.23932 28.0594 7.8485C29.5301 8.45768 30.8664 9.35058 31.992 10.4762C33.1176 11.6018 34.0105 12.9381 34.6197 14.4088C35.2289 15.8795 35.5424 17.4558 35.5424 19.0477C35.5424 20.6395 35.2289 22.2158 34.6197 23.6865C34.0105 25.1572 33.1176 26.4935 31.992 27.6191C30.8664 28.7447 29.5301 29.6376 28.0594 30.2468C26.5887 30.856 25.0124 31.1695 23.4206 31.1695C20.2056 31.1695 17.1224 29.8924 14.8491 27.6191C12.5758 25.3458 11.2987 22.2626 11.2987 19.0477C11.2987 15.8327 12.5758 12.7495 14.8491 10.4762C17.1224 8.20291 20.2056 6.92578 23.4206 6.92578ZM47.6643 13.8526C49.9607 13.8526 52.163 14.7648 53.7868 16.3886C55.4106 18.0124 56.3228 20.2147 56.3228 22.5111C56.3228 24.8074 55.4106 27.0097 53.7868 28.6335C52.163 30.2573 49.9607 31.1695 47.6643 31.1695C45.3679 31.1695 43.1656 30.2573 41.5418 28.6335C39.9181 27.0097 39.0058 24.8074 39.0058 22.5111C39.0058 20.2147 39.9181 18.0124 41.5418 16.3886C43.1656 14.7648 45.3679 13.8526 47.6643 13.8526Z" stroke="#414745" stroke-width="3" stroke-linecap="round" stroke-linejoin="round"/>
</svg>
