<svg width="66" height="65" viewBox="0 0 66 65" fill="none" xmlns="http://www.w3.org/2000/svg">
<rect width="64.9275" height="64" transform="translate(0.630859 0.901123)" fill="white"/>
<path d="M51.6638 31.2926C51.6638 37.0322 49.3837 42.5368 45.3251 46.5954C45.2618 46.6587 45.1981 46.7216 45.1341 46.7841C41.0947 50.7246 35.6724 52.934 30.0223 52.934C24.2826 52.934 18.7781 50.6539 14.7195 46.5954C10.6609 42.5368 8.38086 37.0322 8.38086 31.2926C8.38086 25.5529 10.6609 20.0483 14.7195 15.9898C18.7781 11.9312 24.2826 9.65112 30.0223 9.65112C35.762 9.65112 41.2666 11.9312 45.3251 15.9898C49.3837 20.0483 51.6638 25.5529 51.6638 31.2926Z" stroke="#414745" stroke-width="3" stroke-linecap="round" stroke-linejoin="round"/>
<path d="M11.3794 40.0945C11.3794 38.924 11.8444 37.8013 12.6721 36.9736C13.4999 36.1459 14.6225 35.6809 15.7931 35.6809H31.241C32.4116 35.6809 33.5342 36.1459 34.3619 36.9736C35.1896 37.8013 35.6547 38.924 35.6547 40.0945V43.4048C35.6547 45.263 34.8803 46.8957 33.4478 48.1755M46.6889 44.198V40.0945C46.6889 38.924 46.2239 37.8013 45.3961 36.9736C44.5684 36.1459 43.4458 35.6809 42.2752 35.6809H36.1733M23.517 18.0261C24.5313 18.0261 25.5357 18.2259 26.4728 18.6141C27.41 19.0022 28.2614 19.5712 28.9787 20.2884C29.6959 21.0057 30.2649 21.8571 30.653 22.7942C31.0412 23.7314 31.241 24.7357 31.241 25.7501C31.241 26.7644 31.0412 27.7688 30.653 28.7059C30.2649 29.643 29.6959 30.4945 28.9787 31.2117C28.2614 31.929 27.41 32.4979 26.4728 32.8861C25.5357 33.2742 24.5313 33.474 23.517 33.474C21.4685 33.474 19.5039 32.6602 18.0554 31.2117C16.6068 29.7632 15.7931 27.7986 15.7931 25.7501C15.7931 23.7016 16.6068 21.7369 18.0554 20.2884C19.5039 18.8399 21.4685 18.0261 23.517 18.0261ZM38.9649 22.4398C40.4282 22.4398 41.8314 23.0211 42.8661 24.0557C43.9008 25.0904 44.482 26.4937 44.482 27.9569C44.482 29.4201 43.9008 30.8234 42.8661 31.8581C41.8314 32.8928 40.4282 33.474 38.9649 33.474C37.5017 33.474 36.0984 32.8928 35.0637 31.8581C34.0291 30.8234 33.4478 29.4201 33.4478 27.9569C33.4478 26.4937 34.0291 25.0904 35.0637 24.0557C36.0984 23.0211 37.5017 22.4398 38.9649 22.4398Z" stroke="#414745" stroke-width="3" stroke-linecap="round" stroke-linejoin="round"/>
<path d="M46.6309 48.2809L56.7559 58.4059" stroke="#414745" stroke-width="5" stroke-linecap="round" stroke-linejoin="round"/>
</svg>
