<svg width="66" height="65" viewBox="0 0 66 65" fill="none" xmlns="http://www.w3.org/2000/svg">
<rect width="64.9275" height="64" transform="translate(0.920898 0.901123)" fill="white"/>
<path d="M36.006 11.5218C35.4812 11.483 34.9551 11.4636 34.4288 11.4636V8.40112C35.0307 8.40142 35.6324 8.42389 36.2326 8.4685L36.006 11.5218ZM42.1432 12.8999C41.1615 12.5211 40.1533 12.215 39.1266 11.9842L39.7973 8.99524C40.9702 9.25861 42.1248 9.60773 43.2457 10.0426L42.1432 12.8999ZM46.3387 15.0742C45.9009 14.7822 45.4524 14.5064 44.9943 14.2474L46.5041 11.583C47.5512 12.1763 48.5533 12.8457 49.5023 13.5859L47.6189 16.0022C47.2037 15.6782 46.7767 15.3697 46.3387 15.0773V15.0742ZM51.9553 20.556C51.3495 19.6954 50.6811 18.8806 49.9555 18.1183L52.1727 16.0052C52.9996 16.878 53.7652 17.8121 54.4604 18.7921L51.9553 20.556ZM54.2338 24.6965C54.0328 24.2109 53.8142 23.7329 53.5784 23.2632L56.3132 21.8851C56.854 22.9603 57.3146 24.074 57.6913 25.2171L54.7819 26.1756C54.6174 25.6761 54.4345 25.1827 54.2338 24.6965ZM55.8569 32.3741C55.8321 31.3216 55.7297 30.2724 55.5506 29.235L58.5671 28.7144C58.7723 29.8965 58.8918 31.097 58.9224 32.2975L55.8599 32.3741H55.8569ZM55.4557 37.0841C55.5567 36.5635 55.6394 36.046 55.7037 35.5223L58.7448 35.899C58.5977 37.0938 58.3622 38.2761 58.0404 39.4361L55.0882 38.6184C55.2291 38.1131 55.3516 37.6017 55.4557 37.0841ZM52.5402 44.3697C53.1037 43.4816 53.5998 42.5506 54.0286 41.589L56.8277 42.8293C56.3377 43.9318 55.7711 44.9914 55.128 46.0081L52.5402 44.3697ZM49.588 48.06C49.9616 47.6864 50.3199 47.3005 50.6599 46.9024L52.9812 48.9022C52.5881 49.358 52.1785 49.7993 51.7532 50.2252L49.588 48.06Z" fill="#3D2E3A" stroke="#3D2E3A" stroke-linejoin="round"/>
<path d="M34.4287 11.4636C30.9034 11.4638 27.4326 12.3335 24.3237 13.9954C21.2148 15.6574 18.5637 18.0604 16.6053 20.9917C14.6469 23.9229 13.4416 27.2919 13.0962 30.8001C12.7507 34.3084 13.2758 37.8478 14.6249 41.1047C15.974 44.3616 18.1055 47.2355 20.8305 49.4719C23.5556 51.7084 26.7901 53.2382 30.2476 53.926C33.7051 54.6139 37.2789 54.4384 40.6524 53.4152C44.0259 52.392 47.095 50.5526 49.5879 48.06L51.753 50.2252C48.9041 53.0756 45.3961 55.1794 41.5398 56.3501C37.6836 57.5207 33.5981 57.7221 29.6453 56.9365C25.6926 56.1508 21.9947 54.4023 18.8792 51.8459C15.7637 49.2895 13.3269 46.0041 11.7847 42.2808C10.2424 38.5575 9.64231 34.5113 10.0376 30.5007C10.4328 26.49 11.8112 22.6388 14.0507 19.2882C16.2901 15.9376 19.3214 13.1912 22.8759 11.2921C26.4305 9.39304 30.3986 8.40006 34.4287 8.40112V11.4636Z" fill="#3D2E3A" stroke="#3D2E3A" stroke-linejoin="round"/>
<path d="M32.8976 17.5885C33.3037 17.5885 33.6931 17.7498 33.9803 18.037C34.2675 18.3241 34.4288 18.7136 34.4288 19.1197V35.0752L44.3757 40.7591C44.718 40.9656 44.966 41.2979 45.0667 41.6848C45.1673 42.0718 45.1126 42.4828 44.9142 42.8299C44.7158 43.1771 44.3895 43.4329 44.0051 43.5426C43.6206 43.6524 43.2084 43.6074 42.8567 43.4173L32.1381 37.2924C31.9037 37.1585 31.7089 36.9651 31.5734 36.7317C31.4378 36.4983 31.3664 36.2332 31.3663 35.9633V19.1197C31.3663 18.7136 31.5277 18.3241 31.8148 18.037C32.102 17.7498 32.4915 17.5885 32.8976 17.5885Z" fill="#3D2E3A" stroke="#3D2E3A" stroke-linejoin="round"/>
</svg>
