<svg width="65" height="65" viewBox="0 0 65 65" fill="none" xmlns="http://www.w3.org/2000/svg">
<rect width="64" height="64" transform="translate(0.164795 0.901123)" fill="white"/>
<path d="M6.66479 12.2458C6.66479 11.1413 7.56023 10.2458 8.66479 10.2458H56.2898C57.3944 10.2458 58.2898 11.1413 58.2898 12.2458V41.3481C58.2898 44.6618 55.6035 47.3481 52.2898 47.3481H12.6648C9.35109 47.3481 6.66479 44.6619 6.66479 41.3481V12.2458Z" stroke="#414745" stroke-width="3" stroke-linecap="round" stroke-linejoin="round"/>
<path d="M32.134 47.8481L32.134 58.651" stroke="#414745" stroke-width="3" stroke-linecap="round" stroke-linejoin="round"/>
<path d="M32.134 6.90112L32.134 10.2457" stroke="#414745" stroke-width="3" stroke-linecap="round" stroke-linejoin="round"/>
<path d="M35.7473 48.1655L44.2347 57.3764" stroke="#414745" stroke-width="3" stroke-linecap="round" stroke-linejoin="round"/>
<path d="M28.7948 48.1655L20.3074 57.3764" stroke="#414745" stroke-width="3" stroke-linecap="round" stroke-linejoin="round"/>
<line x1="10.696" y1="17.2761" x2="53.6335" y2="17.2761" stroke="#414745" stroke-width="3" stroke-linecap="round" stroke-linejoin="round"/>
<path d="M17.8523 25.7136L23.4773 25.7136" stroke="#414745" stroke-width="5" stroke-linecap="round" stroke-linejoin="round"/>
<path d="M17.8523 34.5693L33.7473 34.5693" stroke="#414745" stroke-width="5" stroke-linecap="round" stroke-linejoin="round"/>
</svg>
