<svg width="66" height="65" viewBox="0 0 66 65" fill="none" xmlns="http://www.w3.org/2000/svg">
<rect width="64.9275" height="64" transform="translate(0.848328 0.901123)" fill="white"/>
<path d="M6.72333 20.9011C6.72333 18.692 8.51419 16.9011 10.7233 16.9011H56.0983C58.3075 16.9011 60.0983 18.692 60.0983 20.9011V51.7761C60.0983 53.9853 58.3075 55.7761 56.0983 55.7761H10.7233C8.51419 55.7761 6.72333 53.9853 6.72333 51.7761V20.9011Z" stroke="#414745" stroke-width="3"/>
<path d="M40.2233 17.4011V11.9011C40.2233 10.7966 39.3279 9.90112 38.2233 9.90112H28.4008C27.2962 9.90112 26.4008 10.7966 26.4008 11.9011V17.4011" stroke="#414745" stroke-width="3"/>
<path d="M16.1608 12.9011V17.4011" stroke="#414745" stroke-width="3"/>
<path d="M50.7233 12.9011V17.4011" stroke="#414745" stroke-width="3"/>
<path d="M16.1608 22.7761V55.1511" stroke="#414745" stroke-width="3" stroke-linecap="round"/>
<path d="M50.7233 22.7761V55.1511" stroke="#414745" stroke-width="3" stroke-linecap="round"/>
</svg>
