<svg width="66" height="65" viewBox="0 0 66 65" fill="none" xmlns="http://www.w3.org/2000/svg">
<rect width="64.9275" height="64" transform="translate(0.920837 0.901123)" fill="white"/>
<path d="M30.9203 44.4122C30.9203 42.9836 32.0784 41.8255 33.507 41.8255H33.5819C35.0105 41.8255 36.1686 42.9836 36.1686 44.4122C36.1686 45.8408 35.0105 46.9988 33.5819 46.9988H33.507C32.0784 46.9988 30.9203 45.8408 30.9203 44.4122ZM30.9203 18.583C30.9203 17.1337 32.0952 15.9589 33.5444 15.9589C34.9937 15.9589 36.1686 17.1337 36.1686 18.583V34.028C36.1686 35.4773 34.9937 36.6522 33.5444 36.6522C32.0952 36.6522 30.9203 35.4773 30.9203 34.028V18.583Z" fill="#414745"/>
<circle cx="33.3846" cy="32.9011" r="23.25" stroke="#414745" stroke-width="3"/>
</svg>
