<svg width="65" height="65" viewBox="0 0 65 65" fill="none" xmlns="http://www.w3.org/2000/svg">
<rect width="64" height="64" transform="translate(0.164795 0.901123)" fill="white"/>
<path d="M43.0664 36.804C43.0594 34.5561 42.8185 32.3149 42.3476 30.1168H48.366C48.0561 29.2 47.6818 28.3061 47.2459 27.442H41.6454C40.5926 23.9246 38.9596 20.6078 36.8139 17.6285C35.443 17.0521 34.0136 16.6261 32.5508 16.3579C35.4904 19.5164 37.7093 23.2753 39.0541 27.3751H30.0431V16.0737H27.5354V27.3918H18.5244C19.872 23.2846 22.0968 19.5196 25.0444 16.3579C23.5879 16.6216 22.1642 17.042 20.7981 17.6118C18.6439 20.5786 16.9997 23.884 15.9331 27.3918H10.2992C9.85543 28.2717 9.47551 29.1824 9.16235 30.1168H15.231C14.76 32.3149 14.5191 34.5561 14.5121 36.804C14.5167 39.2629 14.7971 41.7134 15.348 44.1098H9.42984C9.7757 45.0469 10.1892 45.9576 10.667 46.8348H16.0669C17.0904 50.0376 18.6077 53.061 20.564 55.7957C21.9649 56.3965 23.4284 56.8395 24.9274 57.1164C22.1989 54.1402 20.1005 50.6429 18.7585 46.8348H27.5521V57.434H30.0598V46.8348H38.8201C37.4734 50.6445 35.3693 54.1419 32.6344 57.1164C34.1404 56.8299 35.6096 56.3757 37.0145 55.7622C38.9678 53.0378 40.485 50.026 41.5117 46.8348H46.8614C47.337 45.9738 47.7505 45.0799 48.0985 44.1599H42.1637C42.7408 41.7498 43.0436 39.2822 43.0664 36.804ZM27.5354 44.1098H17.9393C16.7623 39.5087 16.7107 34.6919 17.7888 30.0667H27.5354V44.1098ZM39.6392 44.1098H30.0431V30.1168H39.7897C40.27 32.3131 40.5054 34.5559 40.4919 36.804C40.5054 39.2649 40.2191 41.7182 39.6392 44.1098Z" fill="#414745"/>
<path d="M28.7891 10.0552C23.4987 10.0552 18.3271 11.624 13.9282 14.5632C9.52943 17.5023 6.10098 21.6799 4.07642 26.5676C2.05187 31.4553 1.52216 36.8336 2.55427 42.0224C3.58637 47.2111 6.13395 51.9773 9.87483 55.7182C13.6157 59.4591 18.3819 62.0066 23.5706 63.0388C28.7594 64.0709 34.1377 63.5411 39.0254 61.5166C43.9131 59.492 48.0907 56.0636 51.0299 51.6648C53.9691 47.266 55.5378 42.0944 55.5378 36.8039C55.5378 29.7097 52.7197 22.9061 47.7033 17.8897C42.6869 12.8733 35.8833 10.0552 28.7891 10.0552ZM28.7891 60.2091C24.16 60.2091 19.6348 58.8364 15.7858 56.2646C11.9369 53.6929 8.93699 50.0375 7.1655 45.7607C5.39402 41.484 4.93052 36.778 5.83362 32.2378C6.73671 27.6977 8.96584 23.5273 12.2391 20.254C15.5124 16.9807 19.6828 14.7516 24.2229 13.8485C28.7631 12.9454 33.4691 13.4089 37.7458 15.1804C42.0226 16.9519 45.678 19.9518 48.2498 23.8007C50.8216 27.6497 52.1942 32.1748 52.1942 36.8039C52.1942 43.0114 49.7283 48.9646 45.339 53.3539C40.9497 57.7432 34.9965 60.2091 28.7891 60.2091Z" fill="#414745"/>
<circle cx="45.7368" cy="18.7969" r="16.6905" fill="white"/>
<path d="M46.8111 4.23053C46.4536 4.20414 46.0952 4.19091 45.7367 4.19089V2.10474C46.1467 2.10494 46.5566 2.12025 46.9654 2.15063L46.8111 4.23053ZM50.9917 5.1693C50.323 4.91125 49.6362 4.70277 48.9369 4.54554L49.3937 2.50945C50.1927 2.68886 50.9792 2.92668 51.7427 3.22292L50.9917 5.1693ZM53.8498 6.65047C53.5515 6.45156 53.246 6.26368 52.9339 6.08721L53.9624 4.27225C54.6757 4.67642 55.3583 5.13243 56.0048 5.6366L54.7218 7.28258C54.4389 7.06193 54.1481 6.85178 53.8498 6.65256V6.65047ZM57.6758 10.3847C57.2631 9.79843 56.8078 9.2434 56.3135 8.72411L57.8239 7.28467C58.3872 7.87922 58.9087 8.5155 59.3822 9.18307L57.6758 10.3847ZM59.2279 13.2052C59.0909 12.8744 58.942 12.5488 58.7814 12.2289L60.6444 11.2901C61.0128 12.0225 61.3266 12.7812 61.5831 13.5598L59.6013 14.2128C59.4892 13.8725 59.3646 13.5364 59.2279 13.2052ZM60.3335 18.4352C60.3167 17.7182 60.2469 17.0035 60.1249 16.2969L62.1798 15.9422C62.3196 16.7475 62.4009 17.5653 62.4218 18.383L60.3356 18.4352H60.3335ZM60.0603 21.6437C60.1291 21.289 60.1854 20.9365 60.2292 20.5797L62.3008 20.8363C62.2006 21.6503 62.0402 22.4556 61.821 23.2459L59.8099 22.6889C59.9059 22.3446 59.9893 21.9962 60.0603 21.6437ZM58.0742 26.6067C58.4581 26.0017 58.796 25.3675 59.0881 24.7124L60.9948 25.5573C60.6611 26.3083 60.2751 27.0301 59.837 27.7227L58.0742 26.6067ZM56.0632 29.1205C56.3177 28.866 56.5618 28.6031 56.7933 28.3319L58.3746 29.6942C58.1068 30.0047 57.8278 30.3053 57.5381 30.5954L56.0632 29.1205Z" fill="#414745"/>
<path d="M45.7365 4.19089C43.3351 4.19107 40.9708 4.78346 38.853 5.9156C36.7352 7.04774 34.9293 8.68469 33.5952 10.6814C32.2612 12.6782 31.4401 14.9732 31.2048 17.363C30.9695 19.7529 31.3271 22.1639 32.2462 24.3825C33.1652 26.6011 34.6171 28.5588 36.4734 30.0823C38.3298 31.6058 40.5331 32.6479 42.8884 33.1164C45.2437 33.585 47.6781 33.4655 49.9762 32.7684C52.2742 32.0714 54.3649 30.8184 56.063 29.1205L57.5379 30.5954C55.5973 32.5371 53.2076 33.9702 50.5807 34.7677C47.9538 35.5652 45.1707 35.7024 42.4781 35.1672C39.7855 34.632 37.2664 33.4409 35.1442 31.6994C33.0219 29.958 31.362 27.72 30.3114 25.1837C29.2608 22.6474 28.852 19.8911 29.1213 17.159C29.3905 14.427 30.3295 11.8035 31.855 9.52106C33.3805 7.23864 35.4454 5.36772 37.8668 4.07407C40.2882 2.78043 42.9913 2.10401 45.7365 2.10474V4.19089Z" fill="#414745"/>
<path d="M44.6937 8.36304C44.9704 8.36304 45.2357 8.47293 45.4313 8.66855C45.6269 8.86416 45.7368 9.12947 45.7368 9.40612V20.275L52.5126 24.1469C52.7458 24.2876 52.9148 24.5139 52.9833 24.7775C53.0519 25.0411 53.0146 25.3211 52.8795 25.5576C52.7443 25.794 52.5221 25.9683 52.2602 26.0431C51.9983 26.1178 51.7175 26.0872 51.4779 25.9577L44.1763 21.7854C44.0167 21.6942 43.884 21.5624 43.7917 21.4034C43.6993 21.2444 43.6507 21.0638 43.6506 20.88V9.40612C43.6506 9.12947 43.7605 8.86416 43.9561 8.66855C44.1518 8.47293 44.4171 8.36304 44.6937 8.36304Z" fill="#414745"/>
</svg>
