<svg width="65" height="65" viewBox="0 0 65 65" fill="none" xmlns="http://www.w3.org/2000/svg">
<rect width="64" height="64" transform="translate(0.164795 0.901123)" fill="white"/>
<path d="M13.6492 23.9636H25.2117" stroke="#414745" stroke-width="3" stroke-linecap="round" stroke-linejoin="round"/>
<path d="M13.6492 30.6511H25.2117" stroke="#414745" stroke-width="3" stroke-linecap="round" stroke-linejoin="round"/>
<path d="M13.6492 37.8386H25.2117" stroke="#414745" stroke-width="3" stroke-linecap="round" stroke-linejoin="round"/>
<path d="M5.46167 13.5261H27.2356L32.0809 17.6511V52.2761L27.2356 48.2761H5.46167V13.5261Z" stroke="#414745" stroke-width="3" stroke-linejoin="round"/>
<path d="M39.4929 23.9636H51.0554" stroke="#414745" stroke-width="3" stroke-linecap="round" stroke-linejoin="round"/>
<path d="M39.4929 30.6511H51.0554" stroke="#414745" stroke-width="3" stroke-linecap="round" stroke-linejoin="round"/>
<path d="M39.4929 37.8386H51.0554" stroke="#414745" stroke-width="3" stroke-linecap="round" stroke-linejoin="round"/>
<path d="M58.8679 15.5261C58.8679 14.4216 57.9725 13.5261 56.8679 13.5261H37.83C37.3549 13.5261 36.8953 13.6953 36.5335 14.0033L32.9522 17.0522C32.5059 17.4322 32.2487 17.9889 32.2487 18.5751V52.2761L36.5396 48.7338C36.898 48.4379 37.3482 48.2761 37.8129 48.2761H56.8679C57.9725 48.2761 58.8679 47.3807 58.8679 46.2761V15.5261Z" stroke="#414745" stroke-width="3" stroke-linejoin="round"/>
</svg>
