<svg width="65" height="65" viewBox="0 0 65 65" fill="none" xmlns="http://www.w3.org/2000/svg">
<rect width="63.0857" height="64" transform="translate(0.993347 0.901123)" fill="white"/>
<path d="M44.475 51.7618L49.7699 46.3852C50.1453 46.006 50.4433 45.5552 50.6465 45.0587C50.8498 44.5623 50.9543 44.03 50.9542 43.4925C50.9542 42.3969 50.5312 41.3671 49.7699 40.5946L44.067 34.8091C43.6931 34.4281 43.2487 34.1259 42.7594 33.9197C42.2701 33.7135 41.7454 33.6074 41.2155 33.6076C40.1356 33.6076 39.1205 34.0367 38.3591 34.8091L34.1889 39.0397C32.0373 38.0494 30.08 36.6726 28.4114 34.9757C26.7346 33.283 25.3726 31.2975 24.3905 29.1144L28.5607 24.8838C28.9362 24.5045 29.2341 24.0537 29.4373 23.5573C29.6406 23.0609 29.7452 22.5286 29.745 21.991C29.745 20.8955 29.322 19.8656 28.5607 19.0932L22.8627 13.3026C22.4882 12.9212 22.043 12.6187 21.5528 12.4125C21.0626 12.2063 20.537 12.1004 20.0063 12.1011C18.9265 12.1011 17.9113 12.5302 17.1499 13.3026L11.86 18.6691C10.6408 19.901 9.94912 21.6023 9.94912 23.3491C9.94912 23.7176 9.97898 24.071 10.0387 24.4193C11.1434 31.2247 14.7115 37.9745 20.076 43.4218C25.4355 48.864 32.0839 52.4787 38.8119 53.6146C40.8672 53.9579 42.9821 53.2663 44.475 51.7618Z" stroke="#414745" stroke-width="3"/>
</svg>
