<svg width="66" height="65" viewBox="0 0 66 65" fill="none" xmlns="http://www.w3.org/2000/svg">
<rect width="64.9275" height="64" transform="translate(0.776611 0.901123)" fill="white"/>
<rect x="11.1896" y="38.1216" width="4.43235" height="4.43235" fill="#414745"/>
<rect x="11.1896" y="30.5468" width="4.43235" height="4.43235" fill="#414745"/>
<rect x="11.1896" y="45.6963" width="4.43235" height="4.43235" fill="#414745"/>
<rect x="19.4089" y="30.5468" width="4.43235" height="4.43235" fill="#414745"/>
<rect x="19.4088" y="38.1216" width="4.43235" height="4.43235" fill="#414745"/>
<rect x="19.4088" y="45.6963" width="4.43235" height="4.43235" fill="#414745"/>
<rect x="27.6287" y="30.5468" width="4.43235" height="4.43235" fill="#414745"/>
<rect x="27.6288" y="38.1216" width="4.43235" height="4.43235" fill="#414745"/>
<rect x="27.6288" y="45.6963" width="4.43235" height="4.43235" fill="#414745"/>
<rect x="35.8483" y="30.5468" width="4.43235" height="4.43235" fill="#414745"/>
<rect x="35.8483" y="38.1216" width="4.43235" height="4.43235" fill="#414745"/>
<rect x="35.8483" y="45.6963" width="4.43235" height="4.43235" fill="#414745"/>
<rect x="44.0677" y="30.5468" width="4.43235" height="4.43235" fill="#414745"/>
<rect x="44.0677" y="38.1216" width="4.43235" height="4.43235" fill="#414745"/>
<rect x="44.0677" y="45.6963" width="4.43235" height="4.43235" fill="#414745"/>
<path d="M13.7047 14.0305C14.0735 14.0305 14.4272 14.177 14.688 14.4378C14.9488 14.6986 15.0953 15.0523 15.0953 15.4212V16.8118H44.9203V15.4212C44.9203 15.0523 45.0669 14.6986 45.3277 14.4378C45.5885 14.177 45.9422 14.0305 46.311 14.0305C46.6798 14.0305 47.0335 14.177 47.2943 14.4378C47.5551 14.6986 47.7016 15.0523 47.7016 15.4212V16.8118H50.4829C51.9582 16.8118 53.3731 17.3979 54.4163 18.4411C55.4595 19.4843 56.0456 20.8991 56.0456 22.3744V52.9688C56.0456 54.4441 55.4595 55.8589 54.4163 56.9021C53.3731 57.9453 51.9582 58.5314 50.4829 58.5314H9.5327C8.0574 58.5314 6.64253 57.9453 5.59934 56.9021C4.55615 55.8589 3.97009 54.4441 3.97009 52.9688V22.3744C3.97009 20.8991 4.55615 19.4843 5.59934 18.4411C6.64253 17.3979 8.0574 16.8118 9.5327 16.8118H12.314V15.4212C12.314 15.0523 12.4605 14.6986 12.7213 14.4378C12.9821 14.177 13.3358 14.0305 13.7047 14.0305ZM6.7514 25.1557V52.9688C6.7514 53.7064 7.04443 54.4138 7.56602 54.9354C8.08762 55.457 8.79505 55.7501 9.5327 55.7501H50.4829C51.2206 55.7501 51.928 55.457 52.4496 54.9354C52.9712 54.4138 53.2643 53.7064 53.2643 52.9688V25.1557H26.2205H6.7514Z" fill="#414745"/>
<circle cx="46.4929" cy="18.7969" r="16.6905" fill="white"/>
<path d="M47.5672 4.23053C47.2097 4.20414 46.8513 4.19091 46.4928 4.19089V2.10474C46.9028 2.10494 47.3127 2.12025 47.7215 2.15063L47.5672 4.23053ZM51.7478 5.1693C51.0791 4.91125 50.3923 4.70277 49.693 4.54554L50.1498 2.50945C50.9488 2.68886 51.7353 2.92668 52.4988 3.22292L51.7478 5.1693ZM54.6059 6.65047C54.3076 6.45156 54.0021 6.26368 53.69 6.08721L54.7185 4.27225C55.4318 4.67642 56.1144 5.13243 56.7609 5.6366L55.4779 7.28258C55.195 7.06193 54.9042 6.85178 54.6059 6.65256V6.65047ZM58.4319 10.3847C58.0192 9.79843 57.5639 9.2434 57.0696 8.72411L58.58 7.28467C59.1433 7.87922 59.6648 8.5155 60.1384 9.18307L58.4319 10.3847ZM59.984 13.2052C59.847 12.8744 59.6981 12.5488 59.5375 12.2289L61.4005 11.2901C61.7689 12.0225 62.0827 12.7812 62.3392 13.5598L60.3574 14.2128C60.2453 13.8725 60.1207 13.5364 59.984 13.2052ZM61.0896 18.4352C61.0728 17.7182 61.003 17.0035 60.881 16.2969L62.9359 15.9422C63.0757 16.7475 63.157 17.5653 63.1779 18.383L61.0917 18.4352H61.0896ZM60.8164 21.6437C60.8852 21.289 60.9415 20.9365 60.9853 20.5797L63.0569 20.8363C62.9567 21.6503 62.7963 22.4556 62.5771 23.2459L60.566 22.6889C60.662 22.3446 60.7454 21.9962 60.8164 21.6437ZM58.8303 26.6067C59.2142 26.0017 59.5521 25.3675 59.8442 24.7124L61.751 25.5573C61.4172 26.3083 61.0312 27.0301 60.5931 27.7227L58.8303 26.6067ZM56.8193 29.1205C57.0738 28.866 57.3179 28.6031 57.5494 28.3319L59.1307 29.6942C58.863 30.0047 58.5839 30.3053 58.2942 30.5954L56.8193 29.1205Z" fill="#414745"/>
<path d="M46.4926 4.19089C44.0912 4.19107 41.7269 4.78346 39.6091 5.9156C37.4913 7.04774 35.6854 8.68469 34.3513 10.6814C33.0173 12.6782 32.1962 14.9732 31.9609 17.363C31.7256 19.7529 32.0833 22.1639 33.0023 24.3825C33.9213 26.6011 35.3732 28.5588 37.2295 30.0823C39.0859 31.6058 41.2892 32.6479 43.6445 33.1164C45.9998 33.585 48.4342 33.4655 50.7323 32.7684C53.0303 32.0714 55.121 30.8184 56.8191 29.1205L58.294 30.5954C56.3534 32.5371 53.9637 33.9702 51.3368 34.7677C48.7099 35.5652 45.9268 35.7024 43.2342 35.1672C40.5416 34.632 38.0226 33.4409 35.9003 31.6994C33.778 29.958 32.1181 27.72 31.0675 25.1837C30.0169 22.6474 29.6081 19.8911 29.8774 17.159C30.1466 14.427 31.0856 11.8035 32.6111 9.52106C34.1366 7.23864 36.2015 5.36772 38.6229 4.07407C41.0443 2.78043 43.7474 2.10401 46.4926 2.10474V4.19089Z" fill="#414745"/>
<path d="M45.4498 8.36304C45.7265 8.36304 45.9918 8.47293 46.1874 8.66855C46.383 8.86416 46.4929 9.12947 46.4929 9.40612V20.275L53.2687 24.1469C53.502 24.2876 53.6709 24.5139 53.7394 24.7775C53.808 25.0411 53.7707 25.3211 53.6356 25.5576C53.5005 25.794 53.2782 25.9683 53.0163 26.0431C52.7544 26.1178 52.4736 26.0872 52.234 25.9577L44.9324 21.7854C44.7728 21.6942 44.6401 21.5624 44.5478 21.4034C44.4555 21.2444 44.4068 21.0638 44.4067 20.88V9.40612C44.4067 9.12947 44.5166 8.86416 44.7122 8.66855C44.9079 8.47293 45.1732 8.36304 45.4498 8.36304Z" fill="#414745"/>
</svg>
